<svg xmlns="http://www.w3.org/2000/svg" width="33" height="33" viewBox="0 0 33 33"><g transform="translate(0.179 -0.223)"><circle cx="16.5" cy="16.5" r="16.5" transform="translate(-0.179 0.223)" fill="#1c4961"/><g transform="translate(5.702 5.702)"><g transform="translate(0 0)"><g transform="translate(0 0)"><path d="M71.717,65.707l-3.3,1.432c-.155.068-.31.135-.464.2.242.14.486.278.728.418V66.123c-.048.114-.094.227-.143.341q.66-.628,1.323-1.255c.259-.244.518-.491.774-.735a.691.691,0,0,0,.3-.544c-.017-.544-.046-1.086-.068-1.63-.036-.844-.07-1.686-.106-2.53-.022-.505-.034-1.013-.063-1.521v-.024a.489.489,0,0,0-.612-.467l-.863.29c-.689.23-1.376.462-2.065.692l-2.508.842q-1.085.363-2.169.728c-.348.116-.709.218-1.052.353l-.015,0,.612.467V59.2l-.239.418.556-.406c.467-.343.936-.684,1.4-1.028q.943-.689,1.884-1.381l1.978-1.451,1.69-1.241,1.021-.747c.065-.048.131-.094.193-.143.23-.177.191-.452.191-.706v-4.6c0-.063.007-.123.01-.184s-.007.046-.007.046a.334.334,0,0,0,.007-.048c.007-.039.015-.075.024-.111.017-.063.036-.123.058-.186.027-.082-.046.089.007-.017.017-.034.034-.068.051-.1.031-.056.068-.109.1-.162.048-.075-.056.065,0,0,.024-.029.048-.056.073-.082.046-.051.1-.1.148-.143l.036-.029c.041-.036-.034.031-.036.027a.469.469,0,0,1,.092-.063q.087-.054.181-.1l.044-.019c.048-.029-.044.022-.041.017s.092-.034.106-.039q.094-.029.189-.051c.019,0,.126-.019.048-.01s-.012,0,0,0,.056,0,.082,0c.056,0,.114,0,.169,0l.1.007c.056,0-.046-.007-.046-.007a.618.618,0,0,0,.065.012,1.97,1.97,0,0,1,.206.053c.031.01.06.024.092.031.053.017-.046-.017-.041-.019s.051.024.058.027a1.842,1.842,0,0,1,.167.092l.08.053c.077.051-.022-.019-.022-.019s.041.034.048.041a1.76,1.76,0,0,1,.138.131.867.867,0,0,1,.063.07l.029.036c.041.046-.046-.075-.017-.022s.077.114.111.174l.044.085c.007.015.012.029.019.044.029.056-.029-.087-.012-.027s.044.121.06.184c.01.036.019.075.027.111a.342.342,0,0,0,.01.048c.015.065-.007-.1,0-.031.027.455.01.912.01,1.366v3.333c0,.135-.007.276,0,.411a.555.555,0,0,0,.259.433c.031.022.063.044.092.065l.385.273,1.386.982q.947.671,1.9,1.342l2,1.422q.86.609,1.717,1.219l1.033.733.143.1-.239-.418v2.106l.612-.467-.861-.283c-.692-.23-1.386-.457-2.077-.687l-2.5-.827c-.721-.239-1.444-.476-2.164-.716-.351-.116-.7-.247-1.054-.348l-.015,0a.487.487,0,0,0-.612.467c-.017.421-.036.839-.053,1.26-.036.837-.07,1.671-.106,2.508-.027.617-.051,1.231-.077,1.848a1.175,1.175,0,0,0,0,.131.565.565,0,0,0,.2.4l.653.622c.505.481,1,.972,1.519,1.441l.031.029c-.048-.114-.094-.227-.143-.341V67.76c.242-.14.486-.278.728-.418l-3.3-1.432c-.155-.068-.31-.135-.464-.2a.5.5,0,0,0-.663.174.489.489,0,0,0,.174.663l3.3,1.432c.155.068.31.135.464.2a.515.515,0,0,0,.489,0,.487.487,0,0,0,.239-.418V66.215a.614.614,0,0,0-.164-.455c-.527-.532-1.088-1.033-1.63-1.55-.2-.191-.4-.385-.607-.576.048.114.094.227.143.341.027-.648.056-1.3.082-1.947l.131-3.091.029-.711-.612.467.861.283c.692.23,1.386.457,2.077.687l2.5.827c.721.239,1.444.476,2.164.716.351.116.7.247,1.054.348l.015,0a.487.487,0,0,0,.612-.467v-2.1a.52.52,0,0,0-.239-.426l-.024-.017c-.493-.356-.994-.7-1.49-1.057q-1.422-1.008-2.844-2.015t-2.827-2c-.489-.346-.97-.711-1.47-1.042l-.022-.015.239.418v-4.22c0-.283.017-.576-.007-.859a2.232,2.232,0,0,0-3.313-1.8,2.2,2.2,0,0,0-.943,1.033,2.388,2.388,0,0,0-.2.953v4.892l.239-.418c-.394.29-.791.578-1.185.868L66.1,55.257l-2.88,2.111-1.792,1.313-.128.094a.518.518,0,0,0-.244.43c0,.065,0,.131,0,.2v1.732a.488.488,0,0,0,.612.467l.863-.29c.689-.23,1.376-.462,2.065-.692l2.508-.842q1.085-.363,2.169-.728c.348-.116.709-.218,1.052-.353l.015,0-.612-.467c.027.648.056,1.3.082,1.947l.131,3.091.029.711c.048-.114.094-.227.143-.341l-1.466,1.393-.733.7a.59.59,0,0,0-.2.421c0,.148,0,.3,0,.445v1.168a.487.487,0,0,0,.239.418.515.515,0,0,0,.489,0l3.3-1.432c.155-.068.31-.135.464-.2a.488.488,0,0,0,.174-.663A.5.5,0,0,0,71.717,65.707Z" transform="translate(-61.056 -45.682)" fill="#fff"/></g></g></g></g></svg>