<svg xmlns="http://www.w3.org/2000/svg" width="33" height="33" viewBox="0 0 33 33"><g transform="translate(-0.435 -0.223)"><circle cx="16.5" cy="16.5" r="16.5" transform="translate(0.435 0.223)" fill="#1c4961"/><g transform="translate(5.227 5.702)"><path d="M24.648,24.764a6.616,6.616,0,1,0,6.616,6.616A6.624,6.624,0,0,0,24.648,24.764Zm0,12.32a5.7,5.7,0,1,1,5.7-5.7A5.71,5.71,0,0,1,24.648,37.084Z" transform="translate(-13.241 -17.321)" fill="#fff"/><path d="M26.278,28.41a4.6,4.6,0,1,0,4.6,4.6A4.606,4.606,0,0,0,26.278,28.41Zm0,8.289a3.688,3.688,0,1,1,3.689-3.688A3.692,3.692,0,0,1,26.278,36.7Z" transform="translate(-14.871 -18.951)" fill="#fff"/><path d="M45.869,13.208a.456.456,0,0,0-.456.456V18.3a.837.837,0,0,1-.836.836H42.747a.837.837,0,0,1-.837-.836V13.665a.456.456,0,0,0-.913,0V18.3a1.748,1.748,0,0,0,1.455,1.719L42.174,31.3a1.489,1.489,0,1,0,2.976,0l-.28-11.281A1.748,1.748,0,0,0,46.325,18.3V13.665A.456.456,0,0,0,45.869,13.208Zm-1.8,18.535a.588.588,0,0,1-.824,0,.569.569,0,0,1-.164-.416l.279-11.274h.593l.279,11.274A.569.569,0,0,1,44.074,31.743Z" transform="translate(-23.51 -12.153)" fill="#fff"/><path d="M45.447,17.543a.456.456,0,0,0,.456-.456V13.665a.456.456,0,0,0-.913,0v3.422A.456.456,0,0,0,45.447,17.543Z" transform="translate(-25.296 -12.153)" fill="#fff"/><path d="M14.885,15.878c0-2.165-1.134-4.578-2.76-4.578s-2.76,2.413-2.76,4.578a3.661,3.661,0,0,0,1.551,3.3l-.28,11.267a1.488,1.488,0,0,0,2.557,1.072,1.464,1.464,0,0,0,.418-1.073l-.275-11.268A3.662,3.662,0,0,0,14.885,15.878Zm-4.608,0c0-1.816.932-3.666,1.848-3.666s1.847,1.85,1.847,3.666c0,1.623-.742,2.713-1.847,2.713S10.278,17.5,10.278,15.878Zm2.421,14.6a.564.564,0,0,1-.16.412.588.588,0,0,1-.825,0,.572.572,0,0,1-.164-.418l.273-10.986a2.549,2.549,0,0,0,.608,0Z" transform="translate(-9.365 -11.3)" fill="#fff"/></g></g></svg>