<svg xmlns="http://www.w3.org/2000/svg" width="33" height="33" viewBox="0 0 33 33"><g transform="translate(0 -0.223)"><circle cx="16.5" cy="16.5" r="16.5" transform="translate(0 0.223)" fill="#1c4961"/><g transform="translate(8.211 5.471)"><g transform="translate(0 0)"><path d="M29.421,37.953H29.2a1.018,1.018,0,0,0-1.016,1.016v1.692h.677V38.969a.34.34,0,0,1,.339-.339h.225a.339.339,0,0,1,.339.339v1.692h.677V38.969A1.017,1.017,0,0,0,29.421,37.953Z" transform="translate(-24.577 -29.393)" fill="#fff"/><path d="M29.421,70.953H29.2a1.018,1.018,0,0,0-1.016,1.016v1.692h.677V71.969a.34.34,0,0,1,.339-.339h.225a.339.339,0,0,1,.339.339v1.692h.677V71.969A1.017,1.017,0,0,0,29.421,70.953Z" transform="translate(-24.577 -54.944)" fill="#fff"/><path d="M29.421,53.953H29.2a1.018,1.018,0,0,0-1.016,1.016v1.692h.677V54.969a.34.34,0,0,1,.339-.339h.225a.339.339,0,0,1,.339.339v1.692h.677V54.969A1.017,1.017,0,0,0,29.421,53.953Z" transform="translate(-24.577 -41.781)" fill="#fff"/><path d="M44.422,37.953H44.2a1.018,1.018,0,0,0-1.016,1.016v1.692h.677V38.969a.34.34,0,0,1,.339-.339h.225a.34.34,0,0,1,.339.339v1.692h.677V38.969A1.017,1.017,0,0,0,44.422,37.953Z" transform="translate(-36.192 -29.393)" fill="#fff"/><path d="M44.422,53.953H44.2a1.018,1.018,0,0,0-1.016,1.016v1.692h.677V54.969a.34.34,0,0,1,.339-.339h.225a.34.34,0,0,1,.339.339v1.692h.677V54.969A1.017,1.017,0,0,0,44.422,53.953Z" transform="translate(-36.192 -41.781)" fill="#fff"/><path d="M13.893,13.909l1.034.441-.1-1.12.739-.847-1.1-.251-.577-.964-.577.964-1.1.251.739.847-.1,1.12Zm-.144-1.18.144-.241.144.241.274.063L14.127,13l.025.28-.258-.11-.258.11L13.66,13l-.185-.212Z" transform="translate(-12.221 -8.655)" fill="#fff"/><path d="M26.114,6.033l1.034-.443.513.219.52.208-.1-1.105.74-.846-1.1-.25-.577-.966-.577.966-1.1.25.74.846ZM27,4.412l.144-.241.144.241.273.062-.184.211.025.279-.258-.11-.258.11.025-.279-.184-.211Z" transform="translate(-22.482 -2.214)" fill="#fff"/><path d="M41.5,3.219l1.035-.445,1.035.444-.1-1.122.728-.85L43.115,1,42.539.033,41.963,1l-1.1.249.742.847ZM42.4,1.6l.143-.24.143.24.273.062-.184.21.026.279-.257-.11-.257.11.026-.279-.184-.21Z" transform="translate(-34.398 -0.033)" fill="#fff"/><path d="M56.844,6.307l1.036-.445,1.036.445-.1-1.122.743-.847-1.1-.249L57.88,3.12l-.576.969-1.1.249.743.847Zm.893-1.621.143-.24.142.24.272.061-.184.21.026.278-.257-.11-.256.11.026-.278-.184-.21Z" transform="translate(-46.276 -2.423)" fill="#fff"/><path d="M70.049,13.731l-.1,1.124,1.037-.447,1.036.447-.1-1.124.746-.847-1.1-.248-.575-.971-.576.971-1.1.248Zm.79-.5.142-.24.142.24.272.061-.184.209.026.277-.256-.11-.256.11.026-.277-.184-.209Z" transform="translate(-56.418 -9.039)" fill="#fff"/><path d="M28.5,27.308V24.114h.9v-.677H27.371V21.631h.453v-.677H17.437v.677h.453v1.805H15.858v.677h.9V36.755h-1.58v.677H26.914c.724,1.356,1.014,1.358,1.145,1.358.177,0,.648,0,2.1-3.381a17.4,17.4,0,0,0,1.415-4.622A3.513,3.513,0,0,0,28.5,27.308Zm-9.933-5.677h8.126v1.805H18.567Zm3.16,15.124V32.692h2.032v4.063Zm2.709,0v-4.74H21.05v4.74H17.438V24.114H27.822v3.175a3.473,3.473,0,0,0-.677.113V25.808a1.018,1.018,0,0,0-1.017-1.016H25.9a1.018,1.018,0,0,0-1.016,1.016V27.5h.677V25.808a.34.34,0,0,1,.339-.339h.224a.34.34,0,0,1,.34.339V27.5h.372a3.513,3.513,0,0,0-2.29,3.287,17.4,17.4,0,0,0,1.415,4.622c.225.526.427.971.607,1.346H24.436Zm3.622,1.271c-.723-.889-2.832-5.737-2.832-7.239a2.833,2.833,0,1,1,5.665,0C30.891,32.289,28.782,37.137,28.059,38.026Z" transform="translate(-14.513 -16.231)" fill="#fff"/><path d="M66.535,57.161a1.66,1.66,0,1,0,1.66,1.66A1.662,1.662,0,0,0,66.535,57.161Zm0,2.643a.983.983,0,1,1,.983-.983A.984.984,0,0,1,66.535,59.8Z" transform="translate(-52.989 -44.265)" fill="#fff"/></g></g></g></svg>