<svg xmlns="http://www.w3.org/2000/svg" width="45" height="45" viewBox="0 0 45 45">
  <g id="inst-icon" transform="translate(-1799.546 -5060.932)">
    <path id="Path_76562" data-name="Path 76562" d="M215.613,211.307A4.307,4.307,0,1,1,211.307,207,4.307,4.307,0,0,1,215.613,211.307Zm0,0" transform="translate(1610.739 4872.125)"/>
    <path id="Path_76563" data-name="Path 76563" d="M156.149,138.461a4.278,4.278,0,0,0-2.452-2.452,7.148,7.148,0,0,0-2.4-.445c-1.363-.062-1.771-.076-5.221-.076s-3.859.013-5.221.075a7.153,7.153,0,0,0-2.4.445A4.28,4.28,0,0,0,136,138.461a7.151,7.151,0,0,0-.445,2.4c-.062,1.362-.076,1.771-.076,5.221s.013,3.858.076,5.221a7.149,7.149,0,0,0,.445,2.4,4.279,4.279,0,0,0,2.452,2.452,7.139,7.139,0,0,0,2.4.445c1.362.062,1.771.075,5.221.075s3.859-.013,5.221-.075a7.14,7.14,0,0,0,2.4-.445,4.278,4.278,0,0,0,2.452-2.452,7.154,7.154,0,0,0,.445-2.4c.062-1.363.075-1.771.075-5.221s-.013-3.859-.075-5.221A7.139,7.139,0,0,0,156.149,138.461Zm-10.072,14.254a6.634,6.634,0,1,1,6.634-6.634A6.634,6.634,0,0,1,146.077,152.715Zm6.9-11.981a1.55,1.55,0,1,1,1.55-1.55A1.551,1.551,0,0,1,152.974,140.734Zm0,0" transform="translate(1675.969 4937.352)"/>
    <path id="Instagram_" data-name="Instagram " d="M22.5,0A22.5,22.5,0,1,0,45,22.5,22.5,22.5,0,0,0,22.5,0ZM35.342,27.827a9.479,9.479,0,0,1-.6,3.136,6.606,6.606,0,0,1-3.779,3.779,9.486,9.486,0,0,1-3.136.6c-1.378.063-1.818.078-5.327.078s-3.949-.015-5.327-.078a9.486,9.486,0,0,1-3.136-.6,6.606,6.606,0,0,1-3.779-3.779,9.477,9.477,0,0,1-.6-3.136c-.064-1.378-.078-1.818-.078-5.327s.015-3.949.078-5.327a9.48,9.48,0,0,1,.6-3.136,6.611,6.611,0,0,1,3.779-3.779,9.488,9.488,0,0,1,3.136-.6C18.551,9.6,18.991,9.58,22.5,9.58s3.949.015,5.327.078a9.49,9.49,0,0,1,3.136.6,6.608,6.608,0,0,1,3.779,3.779,9.478,9.478,0,0,1,.6,3.136c.063,1.378.078,1.818.078,5.327S35.405,26.449,35.342,27.827Zm0,0" transform="translate(1799.546 5060.932)"/>
  </g>
</svg>
